<svg id="Layer_1" data-name="Layer 1" xmlns="http://www.w3.org/2000/svg" viewBox="0 0 1260.99 333.55"><defs><style>.cls-1{fill:#fff;}.cls-2{fill:#333;}</style></defs><title>Moodle_Reversed_White_RGB</title><path class="cls-1" d="M1098.46,244.89a53.42,53.42,0,0,0,16.71,29q13.26,12.28,29.48,12.28,11.28,0,24.56-5.89,16.21-6.88,16.22-16.22l58-.49q-12.29,29-41.76,45.2Q1174.11,324,1141.21,324q-42.26,0-70-26.28t-27.76-68.54q0-43.72,27.76-69.52t72-25.79q48.15,0,75.17,31.93,25.07,29.47,25.06,79.1Zm89.91-33.9q-3.45-17.7-14.73-29-12.8-12.27-29.49-12.28-17.2,0-28.74,11.79T1099.94,211Z"/><path class="cls-1" d="M977.61,318.1V9.56h55V318.1Z"/><path class="cls-1" d="M904.85,318.1V299.92q-7.4,9.82-25.06,15.72a92.3,92.3,0,0,1-30,5.4q-39.3,0-63.12-27T762.85,227.2q0-39.28,23.35-65.83t62.14-26.53q43.73,0,56.51,23.58V9.56H958.4V318.1Zm0-102.68q0-14.74-14-28.26T862.1,173.64q-21.12,0-33.41,17.2-10.82,15.25-10.8,37.34,0,21.63,10.8,36.85,12.28,17.7,33.41,17.69,12.76,0,27.76-12t15-24.81Z"/><path class="cls-1" d="M659.2,323q-41.78,0-69-26.54T562.9,228.18q0-41.74,27.27-68.29t69-26.53q41.74,0,69.27,26.53T756,228.18q0,41.77-27.52,68.29T659.2,323Zm0-145.43q-19.91,0-30.59,15.06t-10.67,35.8q0,20.73,9.93,35.05,11.45,16.29,31.33,16.28t31.32-16.28Q701,249.18,701,228.44T691,193.39Q679.58,177.58,659.2,177.58Z"/><path class="cls-1" d="M460.23,323q-41.76,0-69-26.54t-27.27-68.29q0-41.74,27.27-68.29t69-26.53q41.75,0,69.28,26.53T557,228.18q0,41.77-27.5,68.29T460.23,323Zm0-145.43q-19.89,0-30.59,15.06T419,228.44q0,20.73,9.94,35.05,11.43,16.29,31.34,16.28t31.31-16.28Q502,249.18,502,228.44T492,193.39Q480.61,177.58,460.23,177.58Z"/><path class="cls-1" d="M301.05,318.66V210.59q0-33.9-28-33.9t-28,33.9V318.66H190V210.59q0-33.9-27.52-33.9-28,0-28,33.9V318.66h-55V204.21q0-35.37,24.56-53.54,21.61-16.21,58.46-16.23,37.34,0,55,19.16,15.21-19.15,55.51-19.16,36.85,0,58.45,16.23,24.57,18.17,24.57,53.54V318.66Z"/><path class="cls-2" d="M241.1,86.31l-.7-2.44C147.17,93.48,92.58,106,12.16,153.68l.73,2.38,8.23-.26c-2.12,18.3-.76,41.23-.74,41.52l.18,6.41c-9.73,27.56.07,49.6,8.39,69.77.06-24.93,1.07-45.23-6-71-.2-3.78-1.46-29.75.54-46.75l10.39-.33c15.17.53,30.85,1.27,46,1.33-1,24.09.83,32.64.83,32.64,51.92,17.59,101.22,1.53,127.14-43.9A248.72,248.72,0,0,0,186,126.4Z"/></svg>